<svg xmlns="http://www.w3.org/2000/svg" width="299.02" height="35" viewBox="0 0 299.02 35"><rect class="svg__rect" x="0" y="0" width="56.27" height="35" fill="#191D24"/><rect class="svg__rect" x="54.27" y="0" width="244.75" height="35" fill="#92A5C6"/><path class="svg__text" d="M15.70 22L14.22 22L14.22 13.47L15.70 13.47L19.51 19.54L19.51 13.47L20.98 13.47L20.98 22L19.50 22L15.70 15.95L15.70 22ZM25.46 18.19L25.46 18.19L25.46 17.39Q25.46 16.19 25.88 15.27Q26.31 14.35 27.11 13.85Q27.91 13.35 28.96 13.35L28.96 13.35Q30.37 13.35 31.23 14.12Q32.09 14.89 32.23 16.29L32.23 16.29L30.76 16.29Q30.65 15.37 30.22 14.96Q29.79 14.55 28.96 14.55L28.96 14.55Q27.99 14.55 27.47 15.26Q26.96 15.96 26.94 17.33L26.94 17.33L26.94 18.09Q26.94 19.47 27.44 20.20Q27.93 20.92 28.89 20.92L28.89 20.92Q29.76 20.92 30.20 20.53Q30.64 20.14 30.76 19.22L30.76 19.22L32.23 19.22Q32.11 20.59 31.23 21.35Q30.35 22.12 28.89 22.12L28.89 22.12Q27.87 22.12 27.09 21.63Q26.32 21.15 25.89 20.26Q25.47 19.37 25.46 18.19ZM36.11 19.42L36.11 19.42L37.60 19.42Q37.60 20.15 38.08 20.55Q38.56 20.95 39.45 20.95L39.45 20.95Q40.23 20.95 40.62 20.63Q41.01 20.32 41.01 19.80L41.01 19.80Q41.01 19.24 40.61 18.94Q40.22 18.63 39.18 18.32Q38.15 18.01 37.54 17.63L37.54 17.63Q36.38 16.90 36.38 15.72L36.38 15.72Q36.38 14.69 37.22 14.02Q38.06 13.35 39.40 13.35L39.40 13.35Q40.29 13.35 40.99 13.68Q41.69 14.01 42.08 14.61Q42.48 15.22 42.48 15.96L42.48 15.96L41.01 15.96Q41.01 15.29 40.59 14.91Q40.17 14.54 39.39 14.54L39.39 14.54Q38.66 14.54 38.26 14.85Q37.86 15.16 37.86 15.71L37.86 15.71Q37.86 16.18 38.29 16.50Q38.73 16.81 39.72 17.10Q40.72 17.40 41.32 17.78Q41.93 18.16 42.21 18.65Q42.49 19.13 42.49 19.79L42.49 19.79Q42.49 20.86 41.67 21.49Q40.85 22.12 39.45 22.12L39.45 22.12Q38.53 22.12 37.75 21.77Q36.98 21.43 36.54 20.83Q36.11 20.22 36.11 19.42Z" fill="#FFFFFF"/><path class="svg__text" d="M70.79 22L68.46 22L68.46 13.60L70.41 13.60L74.12 18.07L74.12 13.60L76.45 13.60L76.45 22L74.50 22L70.79 17.52L70.79 22ZM81.18 17.80L81.18 17.80Q81.18 16.55 81.79 15.55Q82.39 14.56 83.45 14.00Q84.52 13.43 85.85 13.43L85.85 13.43Q87.18 13.43 88.24 14.00Q89.31 14.56 89.91 15.55Q90.52 16.55 90.52 17.80L90.52 17.80Q90.52 19.05 89.91 20.04Q89.31 21.04 88.25 21.60Q87.18 22.17 85.85 22.17L85.85 22.17Q84.52 22.17 83.45 21.60Q82.39 21.04 81.79 20.04Q81.18 19.05 81.18 17.80ZM83.58 17.80L83.58 17.80Q83.58 18.51 83.88 19.05Q84.18 19.60 84.70 19.90Q85.22 20.20 85.85 20.20L85.85 20.20Q86.49 20.20 87.00 19.90Q87.52 19.60 87.82 19.05Q88.12 18.51 88.12 17.80L88.12 17.80Q88.12 17.09 87.82 16.54Q87.52 16 87.00 15.70Q86.49 15.40 85.85 15.40L85.85 15.40Q85.21 15.40 84.70 15.70Q84.18 16 83.88 16.54Q83.58 17.09 83.58 17.80ZM101.79 17.80L101.79 17.80Q101.79 16.54 102.39 15.54Q102.99 14.55 104.04 13.99Q105.09 13.43 106.41 13.43L106.41 13.43Q107.56 13.43 108.49 13.84Q109.41 14.25 110.02 15.02L110.02 15.02L108.51 16.39Q107.70 15.40 106.53 15.40L106.53 15.40Q105.85 15.40 105.31 15.70Q104.78 16 104.48 16.54Q104.19 17.09 104.19 17.80L104.19 17.80Q104.19 18.51 104.48 19.05Q104.78 19.60 105.31 19.90Q105.85 20.20 106.53 20.20L106.53 20.20Q107.70 20.20 108.51 19.22L108.51 19.22L110.02 20.58Q109.41 21.35 108.49 21.76Q107.56 22.17 106.41 22.17L106.41 22.17Q105.09 22.17 104.04 21.61Q102.99 21.05 102.39 20.05Q101.79 19.06 101.79 17.80ZM114.13 17.80L114.13 17.80Q114.13 16.55 114.74 15.55Q115.34 14.56 116.40 14.00Q117.47 13.43 118.80 13.43L118.80 13.43Q120.13 13.43 121.19 14.00Q122.25 14.56 122.86 15.55Q123.47 16.55 123.47 17.80L123.47 17.80Q123.47 19.05 122.86 20.04Q122.25 21.04 121.19 21.60Q120.13 22.17 118.80 22.17L118.80 22.17Q117.47 22.17 116.40 21.60Q115.34 21.04 114.74 20.04Q114.13 19.05 114.13 17.80ZM116.53 17.80L116.53 17.80Q116.53 18.51 116.83 19.05Q117.13 19.60 117.65 19.90Q118.16 20.20 118.80 20.20L118.80 20.20Q119.43 20.20 119.95 19.90Q120.47 19.60 120.76 19.05Q121.06 18.51 121.06 17.80L121.06 17.80Q121.06 17.09 120.76 16.54Q120.47 16 119.95 15.70Q119.43 15.40 118.80 15.40L118.80 15.40Q118.16 15.40 117.64 15.70Q117.13 16 116.83 16.54Q116.53 17.09 116.53 17.80ZM130.57 22L128.19 22L128.19 13.60L132.04 13.60Q133.17 13.60 134.02 13.98Q134.86 14.35 135.31 15.06Q135.77 15.76 135.77 16.71L135.77 16.71Q135.77 17.66 135.31 18.35Q134.86 19.05 134.02 19.42Q133.17 19.80 132.04 19.80L132.04 19.80L130.57 19.80L130.57 22ZM130.57 15.47L130.57 17.93L131.89 17.93Q132.62 17.93 133.00 17.61Q133.37 17.29 133.37 16.71L133.37 16.71Q133.37 16.12 133.00 15.80Q132.62 15.47 131.89 15.47L131.89 15.47L130.57 15.47ZM142.65 18.95L139.44 13.60L141.95 13.60L143.94 16.94L145.94 13.60L148.24 13.60L145.02 18.99L145.02 22L142.65 22L142.65 18.95ZM154.70 22L152.32 22L152.32 13.60L156.17 13.60Q157.31 13.60 158.15 13.98Q158.99 14.35 159.44 15.06Q159.90 15.76 159.90 16.71L159.90 16.71Q159.90 17.62 159.47 18.30Q159.04 18.98 158.25 19.36L158.25 19.36L160.06 22L157.52 22L156.00 19.77L154.70 19.77L154.70 22ZM154.70 15.47L154.70 17.93L156.02 17.93Q156.75 17.93 157.12 17.61Q157.50 17.29 157.50 16.71L157.50 16.71Q157.50 16.12 157.12 15.79Q156.75 15.47 156.02 15.47L156.02 15.47L154.70 15.47ZM167.07 22L164.69 22L164.69 13.60L167.07 13.60L167.07 22ZM171.81 17.80L171.81 17.80Q171.81 16.54 172.41 15.54Q173.01 14.55 174.08 13.99Q175.15 13.43 176.49 13.43L176.49 13.43Q177.66 13.43 178.60 13.83Q179.54 14.22 180.16 14.97L180.16 14.97L178.65 16.33Q177.81 15.40 176.63 15.40L176.63 15.40Q176.62 15.40 176.61 15.40L176.61 15.40Q175.53 15.40 174.87 16.06Q174.21 16.71 174.21 17.80L174.21 17.80Q174.21 18.50 174.51 19.04Q174.81 19.59 175.35 19.89Q175.89 20.20 176.59 20.20L176.59 20.20Q177.27 20.20 177.87 19.93L177.87 19.93L177.87 17.62L179.97 17.62L179.97 21.10Q179.25 21.61 178.31 21.89Q177.38 22.17 176.44 22.17L176.44 22.17Q175.12 22.17 174.06 21.61Q173.01 21.05 172.41 20.05Q171.81 19.06 171.81 17.80ZM187.34 22L184.96 22L184.96 13.60L187.34 13.60L187.34 16.76L190.58 16.76L190.58 13.60L192.95 13.60L192.95 22L190.58 22L190.58 18.72L187.34 18.72L187.34 22ZM199.91 15.48L197.32 15.48L197.32 13.60L204.85 13.60L204.85 15.48L202.28 15.48L202.28 22L199.91 22L199.91 15.48ZM215.60 21.24L215.60 21.24L216.38 19.49Q216.95 19.86 217.69 20.09Q218.43 20.32 219.16 20.32L219.16 20.32Q220.52 20.32 220.53 19.64L220.53 19.64Q220.53 19.28 220.14 19.11Q219.75 18.93 218.88 18.74L218.88 18.74Q217.93 18.53 217.29 18.30Q216.66 18.06 216.20 17.55Q215.75 17.03 215.75 16.16L215.75 16.16Q215.75 15.39 216.17 14.77Q216.59 14.15 217.42 13.79Q218.26 13.43 219.47 13.43L219.47 13.43Q220.29 13.43 221.10 13.62Q221.90 13.80 222.52 14.17L222.52 14.17L221.79 15.93Q220.58 15.28 219.45 15.28L219.45 15.28Q218.75 15.28 218.42 15.49Q218.10 15.70 218.10 16.04L218.10 16.04Q218.10 16.37 218.48 16.54Q218.87 16.71 219.72 16.89L219.72 16.89Q220.68 17.10 221.31 17.33Q221.94 17.56 222.40 18.07Q222.86 18.58 222.86 19.46L222.86 19.46Q222.86 20.21 222.45 20.83Q222.03 21.44 221.19 21.80Q220.34 22.17 219.14 22.17L219.14 22.17Q218.12 22.17 217.16 21.92Q216.20 21.67 215.60 21.24ZM227.01 17.80L227.01 17.80Q227.01 16.55 227.62 15.55Q228.22 14.56 229.28 14.00Q230.35 13.43 231.68 13.43L231.68 13.43Q233.01 13.43 234.07 14.00Q235.13 14.56 235.74 15.55Q236.35 16.55 236.35 17.80L236.35 17.80Q236.35 19.05 235.74 20.04Q235.13 21.04 234.07 21.60Q233.01 22.17 231.68 22.17L231.68 22.17Q230.35 22.17 229.28 21.60Q228.22 21.04 227.62 20.04Q227.01 19.05 227.01 17.80ZM229.41 17.80L229.41 17.80Q229.41 18.51 229.71 19.05Q230.01 19.60 230.53 19.90Q231.04 20.20 231.68 20.20L231.68 20.20Q232.32 20.20 232.83 19.90Q233.35 19.60 233.65 19.05Q233.94 18.51 233.94 17.80L233.94 17.80Q233.94 17.09 233.65 16.54Q233.35 16 232.83 15.70Q232.32 15.40 231.68 15.40L231.68 15.40Q231.04 15.40 230.53 15.70Q230.01 16 229.71 16.54Q229.41 17.09 229.41 17.80ZM241.00 18.26L241.00 18.26L241.00 13.60L243.38 13.60L243.38 18.19Q243.38 20.20 244.98 20.20L244.98 20.20Q246.56 20.20 246.56 18.19L246.56 18.19L246.56 13.60L248.90 13.60L248.90 18.26Q248.90 20.13 247.86 21.15Q246.82 22.17 244.95 22.17L244.95 22.17Q243.08 22.17 242.04 21.15Q241.00 20.13 241.00 18.26ZM256.32 22L253.99 22L253.99 13.60L255.95 13.60L259.66 18.07L259.66 13.60L261.98 13.60L261.98 22L260.03 22L256.32 17.52L256.32 22ZM271.12 22L267.14 22L267.14 13.60L271.12 13.60Q272.50 13.60 273.57 14.12Q274.63 14.63 275.22 15.58Q275.81 16.53 275.81 17.80L275.81 17.80Q275.81 19.07 275.22 20.02Q274.63 20.97 273.57 21.48Q272.50 22 271.12 22L271.12 22ZM269.52 15.50L269.52 20.10L271.02 20.10Q272.10 20.10 272.75 19.49Q273.41 18.88 273.41 17.80L273.41 17.80Q273.41 16.72 272.75 16.11Q272.10 15.50 271.02 15.50L271.02 15.50L269.52 15.50ZM279.95 21.24L279.95 21.24L280.73 19.49Q281.29 19.86 282.04 20.09Q282.78 20.32 283.50 20.32L283.50 20.32Q284.87 20.32 284.87 19.64L284.87 19.64Q284.87 19.28 284.48 19.11Q284.09 18.93 283.23 18.74L283.23 18.74Q282.28 18.53 281.64 18.30Q281.01 18.06 280.55 17.55Q280.10 17.03 280.10 16.16L280.10 16.16Q280.10 15.39 280.52 14.77Q280.94 14.15 281.77 13.79Q282.61 13.43 283.81 13.43L283.81 13.43Q284.64 13.43 285.45 13.62Q286.25 13.80 286.87 14.17L286.87 14.17L286.13 15.93Q284.93 15.28 283.80 15.28L283.80 15.28Q283.09 15.28 282.77 15.49Q282.45 15.70 282.45 16.04L282.45 16.04Q282.45 16.37 282.83 16.54Q283.22 16.71 284.07 16.89L284.07 16.89Q285.03 17.10 285.66 17.33Q286.29 17.56 286.75 18.07Q287.21 18.58 287.21 19.46L287.21 19.46Q287.21 20.21 286.79 20.83Q286.37 21.44 285.53 21.80Q284.69 22.17 283.49 22.17L283.49 22.17Q282.47 22.17 281.51 21.92Q280.55 21.67 279.95 21.24Z" fill="#FFFFFF" x="67.27000000000001"/></svg>